<svg xmlns="http://www.w3.org/2000/svg" width="270" height="290">
    <defs>
        <clipPath id="a">
            <path d="M0 595.276h841.89V0H0v595.276z"/>
        </clipPath>
    </defs>
    <path d="M230.478 139.474a97.225 96.238 0 1 1-194.45 0 97.225 96.238 0 1 1 194.45 0z" fill="#2164f3"/>
    <g clip-path="url(#a)" transform="matrix(1.25 0 0 -1.25 -182.027 533.423)" fill="#fff">
        <path d="M185.238 326.162l.438.313c.204-.087.24-.416.059-.545-.18-.13-.48.01-.497.232m-1.181-6.611l-.026.338c-.33-.091-.69.258-.61.589.462.156.964.189 1.44.095a.683.683 0 0 0 .03-.851.683.683 0 0 0-.834-.171m1.119-4.232c.333.02.507-.398.509-.732l-.434-.01-.003.047c-.178-.023-.368.101-.4.28a.37.37 0 0 0 .328.415m66.79-76.886c-42.163 0-76.464 34.302-76.464 76.465 0 42.162 34.3 76.464 76.464 76.464 42.162 0 76.464-34.302 76.464-76.464a76.038 76.038 0 0 0-2.984-21.098c-.097.175-.193.351-.295.523-.285.482-.587.951-.9 1.406-.045.066-.093.127-.14.192a74.297 74.297 0 0 1 2.459 18.977c0 41.136-33.468 74.603-74.604 74.603-41.137 0-74.604-33.467-74.604-74.603 0-41.137 33.467-74.604 74.604-74.604 26.225 0 49.322 13.61 62.627 34.131 1.146.531 2.176 1.024 3.103 1.483-13.344-22.415-37.804-37.475-65.73-37.475m62.395 46.812c-35.177-9.94-71.084-14.309-85.206-12.87-4.811.49-6.893 3.971-6.242 7.9.899 5.424 2.922 10.085 4.866 12.921 1.794-2.305 11.429-2.89 23.902-2.309-1.007-1.238-1.838-2.734-2.415-4.546-1.978-6.215 8.14-5.816 17.878-5.085 9.738.731 20.11 5.397 19.685 7.882-.334 1.944-1.131 3.69-2.458 5.08 10.729 1.621 20.77 3.678 27.78 5.915.519-2.988 1.395-5.708 4.44-8.906 1.942-2.041 1.382-4.962-2.23-5.982m-37.537-23.584l6.96 4.183 1.34-2.226-2.373-1.424 5.22-8.686-2.22-1.332-5.217 8.684-2.372-1.425-1.338 2.226zm-10.944-3.372l2.428-12.496-2.827-.549-2.428 12.496 2.827.549zm-50.292 12.074l2.015-1.518-3.02-7.011 5.922 4.824 2.014-1.516-10.166-8.279-1.92 1.447 5.155 12.053zm-21.815 7.763a4.04 4.04 0 0 0 .803 1.458c.388.452.873.862 1.466 1.222l1.625-2.409-.168-.113a2.99 2.99 0 0 1-.421-.348 2.167 2.167 0 0 1-.365-.459 1.357 1.357 0 0 1-.177-.525.74.74 0 0 1 .142-.525.732.732 0 0 1 .33-.284.952.952 0 0 1 .413-.058c.147.012.296.044.449.101a4.608 4.608 0 0 1 .857.436c.127.082.236.155.325.215l6.445 4.347 1.702-2.523-5.622-3.794a28.16 28.16 0 0 0-1.373-.863 7.52 7.52 0 0 0-1.458-.673 3.504 3.504 0 0 0-1.235-.172 3.947 3.947 0 0 0-2.261.808 3.71 3.71 0 0 0-.833.878c-.38.561-.616 1.119-.718 1.675-.1.554-.075 1.092.074 1.606m10.67 13.49c.166-.013.322-.066.467-.143l.096-.029-.093.027-.003.002-.466.143m-11.67 8.738c.709-.85 2.52-2.632 5.013-4.854.02.007.034.024.056.027.118.014.235-.035.353-.026.117.009.243.129.185.232l.452.762c-.064.051-.137.089-.192.149l.054.114c-.101.465.546.798.983.609.188-.081.334-.221.46-.381.37-.173.72-.444 1.032-.708l1.562-1.323c-.552-.174-1.254-.308-1.627.135-.07.083-.123.184-.212.246-.292.207-.654-.113-.926-.344a2.169 2.169 0 0 0-1.066-.476 156.326 156.326 0 0 1 8.812-7.148c.05.128.124.243.253.304.117.054.252.069.36.139.21.137.245.446.145.676-.1.23-.3.399-.493.559l-2.552 2.116c.076.129.162.263.257.388-.018.016-.045.018-.06.037-.008 0-.015-.006-.023-.005-.082.011-.148.072-.207.13-.205.202-.406.416-.53.675-.125.26-.165.574-.044.835.196.423.717.565 1.177.641.375.062.768.111 1.13-.005.362-.117.684-.445.67-.825a.726.726 0 0 0-.347-.571c.013-.035.02-.072.035-.107a.698.698 0 0 0 .626-.273.698.698 0 0 0-.06-.859c-.062-.066-.125-.17-.122-.244 1.283-1.378 3.024-2.307 4.312-3.682.05-.018.106-.03.148-.063.279-.219.363-.599.428-.947-.187-.199-.586-.086-.641.182l.203-.426c-.203.358-.781.501-.815.883-.626.272-1.293.78-1.853.454-.272-.158-.41-.473-.637-.691a.983.983 0 0 0-.234-.158c3.282-2.412 6.726-4.709 9.995-6.496.12-.502.315-1.057.545-1.629l.004-.115.04-.509.064-.507.088-.501.112-.496.14-.495.166-.488.192-.477.218-.47.245-.459.272-.446.297-.432.235-.302.024-.063c-12.036 5.477-32.022 28.477-28.701 27.708m-1.135 5.099c.095.048.202.068.3.108.256.103.474.344.748.321.287-.024.472-.348.45-.636-.004-.051-.03-.097-.042-.146.067-.017.136-.031.19-.073.16-.126.2-.352.189-.555-.011-.203-.063-.405-.04-.607.037-.303.236-.558.426-.798.189-.24.384-.5.41-.804.025-.304-.202-.649-.507-.627a.667.667 0 0 0-.316.128c-.03.02-.055.045-.082.068-.206.099-.392.357-.482.59-.056.147-.096.3-.145.45-.214.192-.44.371-.68.531-.193.13-.4.253-.54.438a.688.688 0 0 0-.14.408c-.064.198-.116.403-.098.61.02.241.144.484.359.594m-.91 10.992c.289.327.793.443 1.196.276.26-.107.455-.33.562-.589.136-.039.264-.094.353-.202.157-.188.152-.463.266-.68.105-.198.3-.331.447-.499.148-.169.248-.426.125-.613a.336.336 0 0 0-.374-.131c-.014.005-.021.02-.035.027-.438-.104-.98.237-1.316.611a7.98 7.98 0 0 0-1.224 1.8m-.643-13.833c-.038.153.166.3.299.215-.026-.216-.021-.492.178-.58.062-.027.13-.029.194-.052.235-.087.257-.46.059-.613-.197-.153-.506-.089-.675.096-.168.185-.213.455-.184.703l.129.231zm28.155 59.637l-.06-.32-1.61-1.502-.318-.03-5.627 6.034a1.666 1.666 0 0 1-.415.32 1.524 1.524 0 0 1-.511.186c-.174.03-.353.029-.525-.008a.976.976 0 0 1-.47-.247 1.61 1.61 0 0 1-.322-.423 1.344 1.344 0 0 1-.14-.483 1.178 1.178 0 0 1 .324-.944l5.747-6.163v-.346l-1.755-1.638-.317-.03-5.815 6.235a1.035 1.035 0 0 1-.402.265 1.3 1.3 0 0 1-.48.08 1.52 1.52 0 0 1-.471-.086 1.117 1.117 0 0 1-.396-.236.987.987 0 0 1-.261-.395 1.318 1.318 0 0 1-.01-.942.911.911 0 0 1 .26-.378l.007-.008 5.788-6.206-.071-.319-1.666-1.555-.311-.024-5.996 6.432c-.296.316-.517.67-.665 1.061a3.664 3.664 0 0 0-.237 1.209c-.015.413.033.825.14 1.234.107.41.265.793.475 1.144.375.628.858 1.107 1.45 1.429a3.754 3.754 0 0 0 1.969.45c.013.604.15 1.139.41 1.607a3.73 3.73 0 0 0 1.053 1.199c.257.194.535.358.834.488.298.132.604.228.919.294.312.061.633.091.957.085.323-.004.634-.047.938-.125a3.64 3.64 0 0 0 .873-.358c.277-.159.526-.357.746-.594l5.96-6.392zm1.753.548l-6.365 11.025 2.353 1.358 5.052-8.748 3.976 2.295 1.312-2.275-6.328-3.655zm-2.637-73.29l.278.195a2.32 2.32 0 0 0-.868.42c-.431.351-.786.87-1.273 1.076-.01-.037-.014-.077-.025-.113l-1.12.608a.73.73 0 0 0 .117.378c-.056.092-.101.19-.148.286-.051-.002-.101-.011-.153-.012-.148-.204-.466-.289-.672-.13a.197.197 0 0 0-.072.09c-.033.101.07.196.17.228.045.014.09.023.135.034l.056.04c.098.62 1.065.73 1.484.264.17-.191.252-.429.294-.678.629-.18 1.228-.591 1.854-.431.262.068.494.233.76.278a.617.617 0 0 0 .412-.084l.069.027c.5-.04.946-.374 1.17-.821.274-.146.536-.316.76-.532.197-.191.378-.42.422-.691.08-.487-.32-.95-.785-1.114-.466-.165-.977-.106-1.467-.044-.548.069-1.197.211-1.398.726m-.022 8.532l3.84-2.329c.46-.155.994-.489.852-.942a2.514 2.514 0 0 0-.756-.169c.02-.339.039-.692-.092-1.006-.131-.313-.46-.572-.793-.505-.293.059-.494.35-.543.645-.014.081-.002.162 0 .244-.431.019-.89.19-1.302.052l-.015-.007a.51.51 0 0 0 .17-.284c.054-.315-.183-.636-.49-.728-.306-.091-.65.021-.884.239-.19.175-.32.451-.23.693.016.041.049.071.078.102-.05.16-.058.345-.041.511.035.335.11.709-.085.984a.664.664 0 0 1-.154.15c-.173-.192-.476-.257-.734-.186-.303.084-.548.299-.783.508l.065.182c.075.091.166.171.263.243a.38.38 0 0 0-.016.193.44.44 0 0 0 .093.184c-.686.252-1.244.839-1.424 1.548a.409.409 0 0 0-.01.232c.113.319.622.037.934.167l.297-.317c-.026.091.015.225.082.311.238.303.555.564.93.647.378.083.816-.048 1.019-.375.203-.328.077-.838-.285-.969l.014-.018m-5.472 1.461l.268.196c.572.482 1.622-.189 1.423-.911-.633-.231-1.416.101-1.691.715m-2.623 7.788c.21.159.547.108.7-.104.147-.202.122-.477.09-.724l-.177.048a.516.516 0 0 0-.704.078.517.517 0 0 0 .09.702m-6.451 5.51l-.007.33.453.342c-.236-.162-.616-.019-.686.258-.082.322.25.643.582.63.332-.012.612-.274.747-.577.135-.303.152-.644.168-.975a3.342 3.342 0 0 0-1.257-.008m2.82-1.06c.127.031.254-.038.359-.112.396-.278.709-.674.888-1.124a2.757 2.757 0 0 0-.46-.217c.018-.318-.268-.666-.562-.54l-1.354-.539c-.396-.119-.83.238-.87.649-.04.411.242.807.61.995.059.03.122.049.183.07-.094.085-.177.183-.274.265a.917.917 0 0 1-.731.202c-.092.259.216.516.489.488.273-.028.492-.23.689-.422l.326-.277c0-.054 0-.107.002-.161.176.009.354 0 .528-.026.023-.003.046-.01.069-.015l.005.472c-.101.08-.021.262.104.292m-9.945 2.467c.552-.327 1.139-.692 1.387-1.283.167-.397.189-.901.544-1.145a4.258 4.258 0 0 1-2.142.582c-.103 0-.221.004-.283.086-.104.136.048.313.165.436.328.345.458.866.329 1.324m-1.914 2.672l.128.232-.802 1.078c.367.074.779.14 1.09-.067.313-.208.324-.807-.044-.879a.9.9 0 0 0 .745-.606c-.353-.24-.896-.122-1.117.242m.383-5.002c.128-.093.088-.312-.042-.402a.357.357 0 0 0-.472.076.357.357 0 0 0 .059.474l.222-.364c-.11.114.106.309.233.216m11.805-12.556c-.128-.513-.57-.946-1.1-.996-.4-.038-.984-.027-.996-.427a16.588 16.588 0 0 1 2.192-.745c-.204-.4-.796-.352-1.207-.169-1.508.672-2.387 2.229-3.15 3.694.706.285 1.534.204 2.188-.181.003.007 0 .015.004.022.037.074.079.146.11.222-.008.108-.015.216-.027.324a77.784 77.784 0 0 0-1.72 1.616c-.13-.211-.38-.353-.625-.305-.344.068-.565.487-.428.808a1.359 1.359 0 0 0-.61.35c-.136.145-.23.398-.076.523.107.087.254.045.379-.03-4.353 4.4-7.52 8.523-6.384 8.26.502-.602 1.885-1.946 3.76-3.591.453.256 1.019.312 1.5.111.58-.241 1-.826 1.044-1.452.008-.113 0-.239-.076-.323-.075-.083-.194-.103-.304-.117-.023-.003-.045-.001-.068-.004 2.335-1.934 5.094-4.044 7.834-5.81.48.141.913.641.606 1.01.245.015.487.084.702.201l-.046-.121c.043.374.596.491.893.258.297-.232.38-.643.402-1.02.022-.376.008-.772.183-1.105l-1.243-.155a40.64 40.64 0 0 1 1.337-.765c.232-.975.855-2.231 1.499-3.312l.79-.068a.952.952 0 0 0 1.039-.616.95.95 0 0 0-.47-1.112c-.278-.136-.603-.122-.912-.106l-1.944.101c-.3.016-.63.043-.844.254-.207.203-.246.516-.272.804-.027.294-.043.615.126.857l.009.008c-1.321.869-2.71 1.937-4.095 3.107m11.144-15.09c-.281.006-.536.198-.651.452-.15.088-.281.206-.386.344.002-.049.01-.098 0-.148-.057-.333-.523-.567-.747-.316l-.327.104c-.061-.011-.122-.027-.183-.035l.125.053-.02.006a1.69 1.69 0 0 0-1.31.069c-.298.151-.565.539-.352.796.142.172.412.16.624.086.21-.073.416-.193.64-.184a.9.9 0 0 1 .26.054.848.848 0 0 0-.096.267.747.747 0 0 0 .165.581c-.232.141-.446.31-.631.511.493.32 1.23.099 1.507-.409.327.057.699-.113.815-.432.089-.246.02-.527-.14-.734a.964.964 0 0 0 .668-.192c.183.05.377.06.563.025.075-.014.155-.04.196-.105.033-.053.032-.121.02-.184a.76.76 0 0 0-.74-.609m-.086-1.633c.244.253.693-.179.546-.498-.147-.318-.578-.394-.92-.312a.316.316 0 0 0 .096.42.316.316 0 0 0 .419-.097l-.141.487zm96.736-2.564c-34.44-9.276-69.846-13.172-83.758-12.175-1.402.1-2.523.43-3.41.934l-.927 2.496c.806-.361 2.452-.586 3.61-.668 14.146-1.014 49.975 3.504 84.986 12.934 1.175.316 1.993.752 2.53 1.276.45-1.839-.032-3.989-3.031-4.797m-29.666 94.823a4.37 4.37 0 0 0-.332-1.148l-3.555-7.983-.322-.087-2.014.898-.145.294 3.356 7.539c.068.154.113.32.133.508.023.187.013.369-.024.544a1.257 1.257 0 0 1-.207.482.94.94 0 0 1-.404.331 1.438 1.438 0 0 1-.517.127 1.442 1.442 0 0 1-.504-.054 1.116 1.116 0 0 1-.434-.243 1.176 1.176 0 0 1-.311-.426l-3.43-7.703-.33-.145-2.195.976-.134.3 3.215 7.219c.105.26.23.52.374.778.144.259.305.505.482.735.176.234.376.445.597.638.217.19.454.356.707.491a3.238 3.238 0 0 0 1.624.362 4.812 4.812 0 0 0 1.636-.382c.316-.128.618-.285.91-.469.293-.184.557-.394.796-.633a3.88 3.88 0 0 0 .61-.798c.175-.292.298-.61.374-.958.088-.401.102-.799.044-1.193m9.932-6.048a3.093 3.093 0 0 0-.557-1.438l-3.128-4.466a3.028 3.028 0 0 0-.73-.742 3.343 3.343 0 0 0-.883-.447 4.028 4.028 0 0 0-.978-.179c-.338-.018-.671 0-1.005.061a4.776 4.776 0 0 0-.968.268 4.461 4.461 0 0 0-.867.456c-.282.182-.534.4-.761.657-.23.255-.424.532-.584.835a4.451 4.451 0 0 0-.384.945 4.006 4.006 0 0 0-.151.997c-.005.335.036.66.124.982.09.322.232.622.429.9l3.126 4.467c.198.282.436.52.71.715a3.816 3.816 0 0 0 1.875.671c.345.031.69.023 1.03-.027.345-.049.673-.134.996-.254.323-.125.616-.278.886-.469a4.166 4.166 0 0 0 1.045-1.06c.299-.426.518-.881.655-1.374.136-.488.175-.988.12-1.498m8.28-7.98a1.884 1.884 0 0 0-.192-.396 4.839 4.839 0 0 0-.288-.416 7.241 7.241 0 0 0-.321-.387c-.108-.122-.212-.232-.3-.326l-2.9-3.109a4.243 4.243 0 0 0-1.22-.926 3.577 3.577 0 0 0-2.757-.206 4.389 4.389 0 0 0-1.35.734 9.006 9.006 0 0 0-.524.426c-.168.146-.337.292-.506.434l-2.181 2.001-.03.314 8.4 9.008.31-.013 2.754-2.566c.688-.642 1.129-1.341 1.322-2.102.198-.76.124-1.58-.216-2.47m1.782-16.121a1.225 1.225 0 0 0-.58-.796 1.216 1.216 0 0 0-.977-.139 1.27 1.27 0 0 0-.791.591 1.238 1.238 0 0 0-.147.971c.085.342.278.605.586.787.15.092.309.149.486.173.17.026.339.02.498-.02.159-.038.304-.11.443-.208a1.33 1.33 0 0 0 .34-.378c.18-.302.228-.629.142-.981m4.43 7.823l-2.291 3.157-1.838-1.335 1.409-1.943-2.02-1.468-1.41 1.942-2.127-1.546 2.293-3.157-2.16-1.568-3.795 5.225 10.297 7.482 3.796-5.225-2.153-1.564zm3.48-15.427a27.342 27.342 0 0 0-1.49-.638 7.505 7.505 0 0 0-1.548-.437 3.491 3.491 0 0 0-1.245.024 3.988 3.988 0 0 0-2.108 1.152 3.714 3.714 0 0 0-.686.998c-.285.611-.433 1.199-.446 1.765a3.44 3.44 0 0 0 .326 1.574c.23.488.57.924 1.02 1.316.454.385.996.714 1.638.977l1.227-2.634-.182-.085a3.068 3.068 0 0 1-.47-.278 2.078 2.078 0 0 1-.432-.397 1.337 1.337 0 0 1-.257-.49.744.744 0 0 1 .057-.54.741.741 0 0 1 .283-.333.93.93 0 0 1 .398-.121c.148-.013.299-.003.46.03a4.364 4.364 0 0 1 .914.296c.139.061.257.116.354.161l7.046 3.285 1.285-2.759-6.144-2.866zm8.575-6.447a3.12 3.12 0 0 0-.531-1.306 3.839 3.839 0 0 0-1.104-1.017 7.597 7.597 0 0 0-1.597-.744l-.61 2.449c.498.162.866.393 1.102.685.236.293.304.655.202 1.087-.036.142-.08.276-.137.404a1.039 1.039 0 0 1-.221.323.765.765 0 0 1-.317.183.867.867 0 0 1-.431.001.944.944 0 0 1-.37-.156.686.686 0 0 1-.235-.319 1.208 1.208 0 0 1-.101-.495c0-.173-.001-.337-.007-.494a11.665 11.665 0 0 0-.186-1.566 5.525 5.525 0 0 0-.48-1.458 3.897 3.897 0 0 0-.893-1.171c-.37-.33-.842-.567-1.413-.71a5.201 5.201 0 0 0-1.722-.153c-.548.047-1.05.19-1.503.427a3.544 3.544 0 0 0-1.174 1.001c-.328.426-.57.944-.723 1.555-.171.691-.222 1.304-.152 1.842.068.534.25 1.01.543 1.425.294.415.689.773 1.19 1.076a8.622 8.622 0 0 0 1.799.784l.654-2.653a8.341 8.341 0 0 1-.713-.296 2.564 2.564 0 0 1-.577-.384 1.291 1.291 0 0 1-.35-.511c-.072-.191-.078-.415-.02-.669a1.18 1.18 0 0 1 .215-.479.964.964 0 0 1 .42-.299c.198-.074.416-.106.654-.097.236.01.453.04.653.09.253.062.459.198.617.413a.744.744 0 0 1 .135.278c.036.118.066.243.088.371.024.129.042.252.052.376l.027.312c.035.539.079 1.033.142 1.483.059.447.176.856.356 1.219.176.366.43.682.76.955.332.271.78.498 1.348.679.595.189 1.137.253 1.625.197a2.866 2.866 0 0 0 1.305-.471 3.31 3.31 0 0 0 .967-1.032c.263-.433.467-.936.61-1.509.148-.599.184-1.14.103-1.626m-49.391 13.937l-2.39-.474a1601.608 1601.608 0 0 1-10.415-4.696c-.044.375-.054.727-.065 1.081 2.87 2.544 6.125 3.62 9.68 4.667l-.315 1.593c-4.321-.857-13.212-2.342-12.435-9.855.552-.097 1.13-.19 1.71-.281-1.14-2.294-1.82-3.344-1.703-5.863 1.66.122 2.299 1.076 3.834 1.381-.537-1.318-.57-3.393.724-4.259 1.105.101 2.937 1.291 5.024 2.09-.285-.647-.285-.647-.05-1.842 5.03.998 7.49 4.972 11.988 5.864.885-1.035 1.776-2.1 2.666-3.164 3.214-2.337 11.359-5.489 20.639-7.815 9.28-2.327 11.719-3.071 13.726-6.618 2.01-3.549 4.403-11.396-2.92-14.696-1.978-.452-3.6-.569-5.544-1.045-38.724-7.649-59.043-7.217-68.378-7.12-9.334.096-9.896 6.265-10.175 8.218-.48 3.361-.244 5.819.186 8.837.625 4.391 2.667 14.692 4.465 22.14.65 2.697 1.209 5.581 3.023 13.023 4.173 3.294 29.084 24.191 36.174 9.805.948-3.596.81-7.054 1.147-10.853l-.596-.118m-9.796-10.66c17.474 10.825 14.238 1.529-1.353-4.494.25.67.094 1.466 1.353 4.494m-.778 42.883a.76.76 0 0 1-.211.226 3.815 3.815 0 0 1-.649.398c-.107.055-.203.1-.28.137-.491.225-.935.444-1.332.665a3.902 3.902 0 0 0-1.013.768 2.841 2.841 0 0 0-.62 1.052c-.133.408-.183.907-.15 1.502.038.624.172 1.15.4 1.588.229.439.53.79.907 1.05.375.265.814.439 1.308.532a5.34 5.34 0 0 0 1.629.028c.612-.073 1.13-.235 1.555-.486a3.077 3.077 0 0 0 1.029-.963c.264-.395.446-.858.554-1.394.104-.532.146-1.12.122-1.757l-2.505.306c.026.524-.057.949-.244 1.275-.19.327-.503.519-.944.58a2.643 2.643 0 0 1-.425.015 1.04 1.04 0 0 1-.381-.09.766.766 0 0 1-.284-.231.876.876 0 0 1-.155-.403.968.968 0 0 1 .01-.399.681.681 0 0 1 .216-.336c.123-.121.264-.209.426-.271.162-.061.314-.121.459-.184.477-.21.94-.457 1.395-.735a5.5 5.5 0 0 0 1.189-.97 3.94 3.94 0 0 0 .773-1.251c.177-.466.228-.991.157-1.577a5.233 5.233 0 0 0-.475-1.662 3.893 3.893 0 0 0-.937-1.249 3.569 3.569 0 0 0-1.354-.738c-.516-.153-1.087-.193-1.711-.117-.706.088-1.3.26-1.776.517a3.126 3.126 0 0 0-1.135 1.019 3.858 3.858 0 0 0-.577 1.496 8.516 8.516 0 0 0-.088 1.962l2.71-.342a7.469 7.469 0 0 1 .023-.771c.023-.249.074-.473.15-.677a1.28 1.28 0 0 1 .352-.509c.154-.136.359-.223.618-.26.187-.028.36-.019.523.032a.941.941 0 0 1 .43.284c.14.158.247.349.326.574.075.225.125.439.15.643.032.258-.023.499-.165.723m-10.35.615a.762.762 0 0 1-.24.195 3.494 3.494 0 0 1-.34.17 4.78 4.78 0 0 1-.354.135l-.298.096c-.518.155-.99.31-1.413.472a3.94 3.94 0 0 0-1.11.619 2.843 2.843 0 0 0-.76.956c-.188.386-.307.872-.358 1.468-.05.622.01 1.163.176 1.628.165.465.416.855.75 1.166.337.314.746.548 1.224.709a5.44 5.44 0 0 0 1.608.254c.617.011 1.152-.077 1.607-.266a3.058 3.058 0 0 0 1.152-.81c.318-.354.564-.788.743-1.303a7.514 7.514 0 0 0 .366-1.724l-2.522-.044c-.05.522-.19.932-.42 1.227-.232.297-.572.444-1.015.442a2.548 2.548 0 0 1-.423-.042 1.085 1.085 0 0 1-.366-.143.772.772 0 0 1-.248-.268.863.863 0 0 1-.098-.42.92.92 0 0 1 .068-.394.654.654 0 0 1 .259-.303c.139-.102.29-.17.459-.209.168-.039.328-.077.479-.118a11.67 11.67 0 0 0 1.485-.534 5.44 5.44 0 0 0 1.312-.797 3.86 3.86 0 0 0 .939-1.13c.24-.435.366-.949.376-1.538a5.28 5.28 0 0 0-.24-1.713 3.85 3.85 0 0 0-.754-1.367 3.531 3.531 0 0 0-1.238-.92c-.49-.224-1.05-.342-1.677-.353-.713-.012-1.323.078-1.832.264a3.118 3.118 0 0 0-1.265.851 3.86 3.86 0 0 0-.78 1.401 8.628 8.628 0 0 0-.36 1.931l2.733.039c.03-.266.074-.516.129-.761.057-.243.137-.46.244-.649.105-.189.244-.341.418-.455.17-.114.388-.171.65-.172.187-.001.357.033.51.104a.943.943 0 0 1 .388.341c.115.177.197.381.242.614.043.234.063.452.06.658-.004.26-.091.491-.265.693m2.108-7.948c26.483 0 48.512-18.997 53.248-44.103-.216.051-.43.103-.65.153-2.022.462-4.21.893-6.565 1.468l-.82.227-.811.231-.798.233-.79.237-.777.239-.766.24-.751.243-.738.244-.721.245-.707.247-.692.246-.673.247-.656.248-.637.245-.617.244-.596.243-.576.243-.553.238-.53.236-.503.232-.48.229-.453.224-.424.219-.396.212-.365.205-.334.196-.298.184-.172.112-.036.043-.166.198-.168.202-.17.202-.166.199-.168.2-.17.201-.168.201-.168.199-.167.197-.17.201-.17.2-.165.196c-3.832 4.5-4.01 3.239-4.55 9.518l-.026.33-.024.332-.022.335-.021.333-.021.336-.018.335-.018.341-.02.34-.017.34-.018.341-.018.345-.021.347-.02.348-.022.35-.024.355-.026.356-.03.357-.03.359-.035.363-.038.365-.041.368-.047.369-.05.372-.055.378-.061.376-.065.379-.073.384-.08.386-.084.388-.093.39-.208.817-1.068 1.861-1.115 1.439-1.283 1.225-1.423.988-1.527.741-1.587.503-1.617.285-1.624.092-1.622-.073-1.611-.214-1.605-.337-1.594-.442-1.584-.535-1.571-.614-1.557-.683-1.54-.742-1.514-.791-1.49-.83-1.456-.858-1.417-.878-1.374-.889-1.324-.889-1.27-.879-1.204-.863-1.135-.832-1.06-.796-.977-.747-.886-.691-.788-.622-.682-.543-.563-.45-1.285-1.023a5.42 5.42 0 0 0-.143-.4c-1.655-4.044-5.504-19.838-7.462-31.299-8.815 3.832-16.755 8.778-23.481 14.629 6.648 22.419 27.392 38.778 51.968 38.778m-15.311 5.361c.035-.177.112-.335.23-.481.122-.144.26-.264.419-.362.156-.098.325-.165.505-.207.179-.041.346-.045.505-.007.184.041.358.115.52.219.163.105.298.226.409.373.11.144.194.305.247.483.054.174.066.356.035.544l-.007.03a.765.765 0 0 0-.004.409c.036.106.129.185.279.232l.006.002 2.024.466.027-.003a.38.38 0 0 0 .28-.131.668.668 0 0 0 .138-.28 5.177 5.177 0 0 0 .135-1.538 3.082 3.082 0 0 0-.424-1.366c-.25-.421-.621-.805-1.113-1.152-.491-.346-1.127-.652-1.911-.915l-.017-.004a4.175 4.175 0 0 0-1.49-.074 4.14 4.14 0 0 0-2.557 1.316 3.85 3.85 0 0 0-.776 1.299l-1.098 5.575c-.017.13-.036.258-.051.391a3.103 3.103 0 0 0-.03.389c-.01.405.079.797.267 1.183.185.384.433.735.742 1.053a4.768 4.768 0 0 0 2.272 1.304c.479.112.937.144 1.37.103.434-.039.84-.145 1.215-.313a3.886 3.886 0 0 0 1.028-.683c.309-.287.58-.62.813-.998.153-.237.264-.498.33-.782.065-.287.132-.578.202-.877l-.117-.22-2.175-.502c-.11-.026-.193-.004-.251.067a.648.648 0 0 0-.125.238c-.026.087-.047.18-.065.271-.02.093-.042.184-.062.274a.621.621 0 0 1-.243.37c-.127.094-.27.158-.428.205a2.092 2.092 0 0 1-.917.033 1.527 1.527 0 0 1-.464-.187 1.495 1.495 0 0 1-.364-.303 1.22 1.22 0 0 1-.226-.391.946.946 0 0 1-.046-.448l.963-4.605zm-31.031-25.45l-1.521-2.095-8.197 5.955-1.628-2.238-2.101 1.526 4.775 6.57 2.1-1.525-1.625-2.238 8.197-5.955zm-18.542-6.924l-.082.292 1.236 2.328.289.094 4.32-2.298.839 1.578-4.32 2.297-.081.3 1.304 2.449.412-.139 10.668-5.671.09-.296-1.233-2.32-.3-.097-4.227 2.247-.84-1.576 4.229-2.25.09-.294-1.237-2.327-.297-.092-10.86 5.775zm1.165-32.918c.607.098 1.209-.53 1.087-1.132a2.708 2.708 0 0 0-2.59 1.005c.15.088.364.041.464-.102l1.039.229zm-.381 5.009l-.005-.199c.075.19.224.341.427.327a.419.419 0 0 0 .367-.307c.07-.279-.232-.572-.512-.507a.433.433 0 0 0-.287.257l-.006-.241a.597.597 0 0 0-.022.348.438.438 0 0 0 .038.322m-.287 4.19l.25-.408c.247.064.49.14.725.238.138-.097.095-.333-.041-.433-.128-.094-.298-.098-.458-.087.119-.083.21-.207.21-.352-.26-.026-.495.13-.633.347-.037-.006-.075-.004-.111-.018l-.077.212c.032.005.063.016.095.022a.624.624 0 0 0 .04.479m1.814 6.08c-.187-.067-.407-.097-.572.012-.165.109-.198.402-.021.49l.174.159a.305.305 0 0 0-.06.42.304.304 0 0 0 .422.04c.296-.255-.112-.769.057-1.121m15.07-54.852l-3.528-3.292-.31.023-1.54 1.65v.31l6.605 6.159c.427.396.878.662 1.352.792.474.133.942.158 1.414.078.47-.081.925-.248 1.364-.514a5.441 5.441 0 0 0 1.206-.974c.368-.396.665-.823.89-1.285.23-.461.364-.929.406-1.41a3.263 3.263 0 0 0-.19-1.411c-.17-.466-.47-.899-.894-1.294l-6.57-6.127-.314.028-1.423 1.525-.005.315 3.529 3.291-1.991 2.136zm18.167-13.556l-2.192-4.299-.296-.084-2.011 1.024-.107.29 4.1 8.046c.265.521.596.923.997 1.207.402.289.834.471 1.303.558.47.084.955.083 1.46-.016a5.488 5.488 0 0 0 1.464-.503 5.312 5.312 0 0 0 1.278-.902 3.9 3.9 0 0 0 .862-1.187c.202-.433.305-.898.305-1.392-.002-.493-.134-1.005-.398-1.523l-4.08-8.003-.302-.081-1.858.947-.115.294 2.192 4.3-2.602 1.324zm13.797-.289c-.135.353-.415.59-.84.72a2.552 2.552 0 0 1-.418.082c-.14.013-.271.004-.39-.03a.752.752 0 0 1-.318-.183.871.871 0 0 1-.215-.373.974.974 0 0 1-.051-.397.668.668 0 0 1 .159-.364c.103-.14.23-.249.378-.334.152-.087.292-.17.425-.255a11.66 11.66 0 0 0 1.264-.944 5.452 5.452 0 0 0 1.02-1.146c.276-.415.467-.868.568-1.356.103-.486.072-1.013-.09-1.58a5.239 5.239 0 0 0-.73-1.568 3.909 3.909 0 0 0-1.12-1.087 3.544 3.544 0 0 0-1.453-.517c-.534-.071-1.105-.021-1.71.153-.683.195-1.24.46-1.672.788-.426.326-.75.72-.961 1.182a3.885 3.885 0 0 0-.337 1.569 8.62 8.62 0 0 0 .22 1.951l2.624-.761a7.332 7.332 0 0 1-.098-.764 2.494 2.494 0 0 1 .044-.692 1.27 1.27 0 0 1 .266-.558c.13-.158.322-.276.57-.355.18-.056.354-.074.522-.051a.962.962 0 0 1 .47.214c.16.136.298.307.41.516.11.212.193.414.249.611.073.25.057.497-.05.741a.763.763 0 0 1-.172.258 3.278 3.278 0 0 1-.277.26c-.1.086-.2.162-.3.232-.1.074-.187.132-.257.181-.45.299-.854.584-1.213.863a3.954 3.954 0 0 0-.88.917 2.834 2.834 0 0 0-.446 1.137c-.068.423-.041.925.086 1.508.136.61.35 1.109.644 1.505.293.397.647.697 1.059.895.413.203.87.307 1.377.321a5.384 5.384 0 0 0 1.612-.227c.593-.17 1.08-.411 1.459-.723.38-.311.669-.682.866-1.113.198-.431.307-.918.328-1.463a7.615 7.615 0 0 0-.153-1.755l-2.426.696c.107.513.094.944-.043 1.296m10.724-2.401a1.339 1.339 0 0 1-.332.34 2.114 2.114 0 0 1-.85.346c-.171.02-.34.015-.501-.019a1.44 1.44 0 0 1-.445-.16 1.211 1.211 0 0 1-.345-.289 1.008 1.008 0 0 1-.198-.406l-.67-4.656a1.108 1.108 0 0 1 .053-.531c.064-.177.155-.337.27-.485.113-.144.249-.267.404-.365.15-.101.309-.162.472-.182a1.654 1.654 0 0 1 1.074.24c.155.097.287.22.398.37.11.144.183.312.219.501l.003.03c.02.166.067.295.137.383.07.088.185.132.34.124l.008-.001 2.062-.253.023-.011a.387.387 0 0 0 .22-.22.695.695 0 0 0 .032-.311 5.163 5.163 0 0 0-.4-1.49 3.055 3.055 0 0 0-.864-1.14c-.377-.309-.86-.544-1.44-.701-.58-.158-1.282-.228-2.11-.207l-.016.001a4.245 4.245 0 0 0-2.59 1.323c-.335.36-.595.769-.788 1.229a3.86 3.86 0 0 0-.285 1.486l.875 5.615c.028.127.055.254.085.384.028.133.064.256.107.376.128.383.346.723.652 1.02.306.298.66.542 1.059.736.4.194.826.33 1.277.407a4.423 4.423 0 0 0 2.627-.331 3.735 3.735 0 0 0 1.766-1.703c.193-.375.333-.78.424-1.215a2.48 2.48 0 0 0 .042-.848c-.037-.291-.072-.588-.11-.893l-.185-.167-2.216.271c-.112.014-.18.064-.211.15a.637.637 0 0 0-.038.266c.006.091.018.184.033.279.01.092.024.185.034.277a.606.606 0 0 1-.102.43m8.586-9.453l-2.723-.239-1.108 12.681 3.808.333c.678.059 1.29.039 1.833-.06.542-.099 1.012-.288 1.408-.576.392-.281.707-.662.945-1.144.237-.482.386-1.072.449-1.773a4.345 4.345 0 0 0-.06-1.11 5.254 5.254 0 0 0-.35-1.142 4.846 4.846 0 0 0-.61-1.018 2.992 2.992 0 0 0-.844-.739l2.734-4.734-2.797-.245-2.867 4.644-.243-.021.425-4.857zm18.8 3.544l-.134-.285-2.278-.876-.284.126-4.41 11.483.13.276 3.462 1.329a4.027 4.027 0 0 0 1.565.27 4.391 4.391 0 0 0 1.512-.312 3.973 3.973 0 0 0 1.263-.818 3.42 3.42 0 0 0 .836-1.256l.138-.361c.21-.546.28-1.083.205-1.61a3.78 3.78 0 0 0-.522-1.461 4.692 4.692 0 0 0-1.06-1.192 5.207 5.207 0 0 0-1.402-.813l-.653-.25 1.633-4.25zm66.747 24.006l-2.945 1.7 3.242 1.551a4.598 4.598 0 1 1-3.967 8.296l-8.932-4.271-3.898 2.25.02.027 14.016 6.703a4.599 4.599 0 0 1-3.967 8.296l-7.541-3.606a79.357 79.357 0 0 1 3.123 18.169h7.92a3.885 3.885 0 1 1 0 7.771h-7.885a79.385 79.385 0 0 1-3.084 18.792l7.467-3.571a4.598 4.598 0 1 1 3.967 8.296l-14.052 6.721 3.914 2.26 8.932-4.272a4.6 4.6 0 0 1 3.967 8.297l-3.242 1.55 2.945 1.701a6.918 6.918 0 1 1-6.918 11.981l-3.068-1.771.298 3.833a4.599 4.599 0 0 1-9.169.713l-.786-10.122-3.914-2.26 1.226 15.781a4.599 4.599 0 0 1-9.17.712l-.61-7.865a79.414 79.414 0 0 1-13.98 11.868l3.498 6.058a3.886 3.886 0 0 1-6.73 3.886l-3.442-5.961a78.2 78.2 0 0 1-17.216 6.705l5.958 4.086a4.598 4.598 0 0 1 1.19 6.393 4.597 4.597 0 0 1-6.391 1.191l-12.847-8.809v4.519l8.166 5.6a4.598 4.598 0 1 1-5.201 7.584l-2.965-2.033v3.401a6.918 6.918 0 0 1-13.835 0v-3.542l-3.171 2.174a4.599 4.599 0 0 1-5.201-7.584l8.372-5.742v-4.519l-13.053 8.951a4.599 4.599 0 0 1-5.201-7.584l5.675-3.892a78.103 78.103 0 0 1-17.03-6.373l-3.138 5.435a3.886 3.886 0 0 1-6.73-3.886l3.138-5.435a79.298 79.298 0 0 1-13.912-11.401l-.526 6.775a4.598 4.598 0 0 1-9.17-.712l1.207-15.531-3.914 2.26-.767 9.872a4.598 4.598 0 0 1-9.168-.713l.278-3.583-2.945 1.7a6.918 6.918 0 0 1-6.918-11.981l3.068-1.772-3.47-1.658a4.598 4.598 0 1 1 3.968-8.297l9.16 4.38 3.914-2.26-14.28-6.829a4.599 4.599 0 0 1 3.968-8.296l6.172 2.951a79.34 79.34 0 0 1-2.91-18.172h-6.56a3.885 3.885 0 0 1 0-7.771h6.596a79.335 79.335 0 0 1 2.948-17.55l-6.246 2.987a4.598 4.598 0 1 1-3.967-8.296l14.279-6.829-3.914-2.26-9.16 4.38a4.597 4.597 0 1 1-3.968-8.296l3.47-1.659-3.068-1.772a6.918 6.918 0 1 1 6.918-11.981l2.945 1.7-.278-3.583a4.598 4.598 0 1 1 9.168-.712l.767 9.871 3.914 2.26-1.206-15.53a4.598 4.598 0 1 1 9.169-.712l.542 6.984a79.338 79.338 0 0 1 14.269-11.623l-3.511-6.081a3.885 3.885 0 1 1 6.73-3.886l3.532 6.118a78.171 78.171 0 0 1 16.884-6.228l-5.923-4.062a4.599 4.599 0 0 1 5.2-7.584l13.054 8.951v-4.519l-8.372-5.742a4.598 4.598 0 0 1 5.201-7.584l3.17 2.175v-3.543a6.917 6.917 0 1 1 13.835 0v3.401l2.966-2.033a4.597 4.597 0 0 1 6.392 1.192 4.597 4.597 0 0 1-1.191 6.392l-8.166 5.6v4.52l12.847-8.81a4.598 4.598 0 1 1 5.2 7.584l-6.205 4.256a78.187 78.187 0 0 1 17.07 6.561l3.836-6.645a3.885 3.885 0 1 1 6.73 3.886l-3.871 6.704a79.336 79.336 0 0 1 14.337 12.091l.627-8.075a4.599 4.599 0 0 1 9.169.712l-1.226 15.78 3.914-2.26.786-10.121a4.598 4.598 0 1 1 9.169.712l-.298 3.834 3.068-1.772a6.919 6.919 0 0 1 6.918 11.982"/>
        <path d="M299.615 362.95a.922.922 0 0 1-.209.314l-.92.858-4.985-5.346.919-.857a.714.714 0 0 1 .351-.164 2.14 2.14 0 0 1 .935.012c.14.036.237.083.292.144l3.597 3.855a.636.636 0 0 1 .156.339c.021.139.021.28-.006.427a1.797 1.797 0 0 1-.13.418"/>
        <path d="M274.13 256.56a1.15 1.15 0 0 1-.316.474 1.146 1.146 0 0 1-.444.24 1.37 1.37 0 0 1-.52.036 2.217 2.217 0 0 1-.53-.13l-.941-.352.929-2.418.936.361c.418.16.717.385.889.676.172.287.17.661-.003 1.112"/>
        <path d="M290.976 370.024a1.19 1.19 0 0 1-.377.453 1.795 1.795 0 0 1-.65.304 1.499 1.499 0 0 1-1.204-.23c-.18-.13-.34-.29-.481-.491l-1.996-2.85a3.993 3.993 0 0 1-.408-.724 1.825 1.825 0 0 1-.146-.691c.002-.224.06-.439.178-.645.117-.202.307-.395.57-.58.218-.151.446-.231.687-.234.24-.004.478.037.704.125.226.091.438.214.634.371.196.158.354.319.474.493l1.997 2.851c.112.161.184.351.22.57a2.046 2.046 0 0 1-.202 1.278"/>
        <path d="M257.08 251.65c.25.072.458.174.62.304.167.133.29.301.364.511.076.213.102.47.074.775-.025.288-.108.514-.253.685a1.377 1.377 0 0 1-.523.385c-.208.087-.434.14-.679.16-.244.02-.482.02-.713 0l-.702-.063.26-2.973.695.061c.323.034.61.087.856.155"/>
        <path d="M227.427 258.67a.658.658 0 0 1 .062.462 1.161 1.161 0 0 1-.206.426 1.652 1.652 0 0 1-.36.358 2.653 2.653 0 0 1-.392.25 1.715 1.715 0 0 1-.418.144 2.185 2.185 0 0 1-.497.057c-.164 0-.318-.03-.459-.087a.608.608 0 0 1-.32-.28l-.773-1.52 2.594-1.321.769 1.512z"/>
        <path d="M209.762 270.578a.656.656 0 0 1 .215.413c.016.155.004.312-.047.47a1.68 1.68 0 0 1-.216.459 2.71 2.71 0 0 1-.283.368 2.2 2.2 0 0 1-.791.504 1.21 1.21 0 0 1-.458.073.606.606 0 0 1-.397-.152l-1.247-1.163 1.984-2.13 1.24 1.158z"/>
        <path d="M275.133 318.217c.73.089 1.064.375 1.005.856-.062.499-.419.708-1.072.628a1.214 1.214 0 0 1-.654-.285.644.644 0 0 1-.233-.6c.058-.471.375-.671.954-.6"/>
        <path d="M253.472 316.56c-.234.244-.53.345-.885.3a.964.964 0 0 1-.781-.55c-.151-.28-.203-.61-.156-.984.126-1.03.564-1.497 1.313-1.404.75.092 1.059.667.929 1.726a1.552 1.552 0 0 1-.42.912"/>
        <path d="M259.45 307.736c-.235.244-.53.344-.885.301a.967.967 0 0 1-.782-.55c-.15-.283-.203-.61-.156-.985.127-1.029.565-1.497 1.314-1.405.75.093 1.059.668.93 1.725-.047.364-.186.67-.421.914"/>
        <path d="M270.582 309.531c-.318-.04-.574-.159-.769-.359-.195-.199-.283-.454-.264-.764l.922.114c.701.087 1.035.278.997.577-.044.355-.339.497-.886.432"/>
        <path d="M255.32 315.69c.104-.827-.027-1.517-.388-2.068-.377-.583-.974-.923-1.791-1.024-.816-.1-1.482.08-2 .543-.49.438-.788 1.07-.89 1.895-.098.8.042 1.48.42 2.044.395.603.98.953 1.76 1.05.836.103 1.498-.067 1.993-.509.494-.44.792-1.084.896-1.93m.538 5.216c.4.382.73.588.987.62.277.033.51-.44.698-1.422.007-.067.091-.7.25-1.902l.41-3.329c.003-.029.149-.145.437-.348.288-.205.44-.368.456-.493.052-.424-.277-.678-.99-.766a6.324 6.324 0 0 0-.34-.027 6.11 6.11 0 0 1-.338-.028c-.482-.058-.762-.084-.842-.073-.297.042-.467.224-.507.552-.008.067.086.226.278.481.194.252.273.52.237.797l-.557 4.54-.196-.038c-.122-.025-.234.016-.345.125a.631.631 0 0 0-.188.364c-.031.251.153.566.55.947m3.519.433c.399.381.727.586.984.618.28.036.51-.438.7-1.42.008-.067.09-.7.249-1.9l.409-3.33c.005-.03.15-.146.439-.349.288-.205.44-.368.456-.493.052-.423-.28-.677-.99-.765a7.978 7.978 0 0 0-.34-.028 6.657 6.657 0 0 1-.341-.027c-.478-.06-.76-.084-.84-.075-.297.042-.466.225-.506.553-.01.067.084.227.278.48.193.253.27.52.238.797l-.558 4.541-.196-.039c-.122-.024-.237.018-.344.126a.627.627 0 0 0-.191.364c-.03.251.153.566.553.947m3.432.591c.164.26.408.41.735.45a.925.925 0 0 0 .8-.262c.217-.21.344-.48.386-.809a1.132 1.132 0 0 0-.215-.823.994.994 0 0 0-.714-.432c-.278-.035-.536.052-.771.26-.234.203-.37.444-.403.722-.041.338.019.635.182.894m2.133-4.487l.183-1.484c.02-.173.186-.38.493-.619.307-.24.468-.424.485-.548.04-.327-.194-.52-.704-.584l-1.197-.148c-.336-.04-.575-.046-.715-.015-.252.057-.393.225-.427.504-.018.143.187.384.614.72.103.11.088.708-.047 1.793-.05.415-.096.632-.138.656l-.506.056c-.177.017-.28.145-.311.385-.024.202.17.507.584.914.415.407.73.623.952.651.22.028.402-.292.542-.958.048-.227.112-.668.192-1.323m1.92-8.034c.42-.495.675-1.094.762-1.795.088-.71-.012-1.362-.3-1.955-.327-.683-.826-1.066-1.497-1.148a1.711 1.711 0 0 0-.923.116c-.32.145-.5.377-.54.688-.051.43.115.668.5.715l.23.03.246.03c.297.035.525.201.685.494.143.26.196.546.158.853-.045.354-.171.641-.383.86a.968.968 0 0 1-.873.316c-.395-.047-.68-.243-.851-.586-.14-.28-.186-.633-.135-1.057l.3-2.434c.453-.033.703-.226.746-.583.029-.24-.2-.63-.69-1.167-.49-.539-.86-.823-1.11-.853-.135-.017-.277.043-.425.181-.148.137-.231.275-.247.408-.012.106.06.335.224.687.06.133.036.656-.077 1.57l-.372 3.027-.142-.047c-.15-.047-.297-.007-.44.12-.141.126-.223.264-.241.418-.027.217.166.523.576.921.409.396.729.61.958.638.299.035.553-.162.762-.595.425.51.878.796 1.359.855.673.082 1.252-.152 1.74-.707m-.058 10.086c.384.403.697.621.937.65.222.027.379-.06.47-.265.055-.12.104-.354.146-.7.405.744.946 1.157 1.618 1.24.914.111 1.453-.507 1.619-1.859l.173-1.406c.145.008.3-.043.466-.156.165-.113.257-.235.273-.37.03-.262-.175-.663-.621-1.203-.445-.54-.798-.825-1.058-.857a.554.554 0 0 0-.442.135.631.631 0 0 0-.187.298c-.002-.003-.005-.014-.008-.014-.01-.002-.02.046-.031.142.006-.047.026-.086.039-.128.036.036.07.276.104.735.058.728.07 1.21.042 1.452-.064.511-.124.851-.183 1.01-.147.394-.373.574-.682.535-.517-.064-.811-.369-.882-.918-.03-.23-.002-.693.085-1.389.028-.243.204-.474.524-.69.319-.214.486-.385.5-.51.048-.378-.583-.649-1.89-.81-.73-.089-1.123.091-1.177.543-.018.134.045.255.188.361.198.14.326.253.382.34.135.181.18.454.135.821l-.202 1.628-.153-.063a.69.69 0 0 0-.466.111.517.517 0 0 0-.254.386c-.028.23.15.548.535.951m6.17-10.623c.095-.759-.445-1.21-1.618-1.355a8.733 8.733 0 0 0-.79-.045 9.425 9.425 0 0 1-.794-.047.854.854 0 0 1 .416-.637c.23-.138.495-.187.793-.15.213.025.48.146.806.362.323.216.51.327.558.332.442.055.69-.13.742-.553.052-.412-.172-.782-.67-1.107a2.966 2.966 0 0 0-1.302-.48c-.787-.098-1.457.112-2.01.63-.516.482-.823 1.122-.922 1.92-.095.76.056 1.432.454 2.024.394.59.968.931 1.717 1.023.673.084 1.257-.05 1.753-.399.498-.349.786-.855.867-1.518m2.578 11.985c-.192.375-.3.66-.323.854-.04.307.05.576.265.808.217.231.48.366.8.405.288.037.568-.033.836-.204.27-.17.423-.398.457-.676a.588.588 0 0 0-.171-.51.843.843 0 0 0-.513-.247c-.18-.022-.37.013-.567.105-.088 0-.146-.02-.176-.056-.031-.039-.034-.1-.014-.186.013-.096.242-.343.692-.742.449-.398.69-.75.729-1.059.08-.644-.136-1.155-.645-1.529-.251-.187-.742-.394-1.475-.62-.534-.172-.791-.346-.77-.519.033-.267.387-.363 1.059-.28.124.015.316.052.57.108.258.056.449.091.575.107.498.061.924.007 1.277-.164.416-.203.652-.539.71-1.012.087-.71-.227-1.324-.944-1.84-.591-.425-1.28-.686-2.07-.784a4.917 4.917 0 0 0-1.704.07c-.714.164-1.104.511-1.168 1.04a.743.743 0 0 0 .209.62.953.953 0 0 0 .597.314c.212.026.532-.15.959-.533.427-.382.804-.554 1.13-.514.318.041.608.144.87.314.326.206.472.447.438.725-.051.415-.423.58-1.114.493a7.459 7.459 0 0 1-.522-.092 7.398 7.398 0 0 0-.524-.095c-.576-.07-.99-.083-1.24-.036-.47.09-.73.351-.783.782-.056.441.242.88.893 1.31-.714.322-1.106.767-1.176 1.333-.158 1.298.785 2.07 2.833 2.31m2.196-14.309c-.318-.36-.74-.573-1.268-.64-.307-.036-.606 0-.892.11-.225-.309-.46-.479-.698-.51-.268-.032-.567.165-.891.593-.303.393-.473.737-.51 1.035-.05.413.14.646.572.7.164.021.5-.112 1.008-.396.509-.284.835-.417.977-.398.395.048.573.226.536.533-.031.241-.301.423-.813.544-.864.196-1.347.318-1.45.364-.534.217-.831.565-.89 1.045-.058.48.047.892.315 1.232.273.341.648.541 1.128.6.308.037.643.006 1.007-.094.117.316.315.491.593.525.25.03.513-.165.79-.59.239-.36.379-.69.416-.99.039-.325-.142-.513-.546-.563-.192-.023-.49.088-.89.337-.402.248-.641.368-.717.357a.614.614 0 0 1-.34-.158.355.355 0 0 1-.13-.324c.025-.192.289-.349.792-.473.774-.188 1.243-.32 1.41-.397.518-.248.808-.623.869-1.122.064-.519-.062-.959-.378-1.32m-16.838-1.75c-.377-.583-.975-.925-1.791-1.026-.816-.099-1.484.081-2 .545-.491.437-.79 1.067-.89 1.894-.1.797.043 1.48.422 2.042.393.605.978.955 1.757 1.051.836.103 1.5-.066 1.995-.508.493-.443.792-1.085.895-1.93.102-.827-.026-1.517-.388-2.068m-5.332-1.197a2.654 2.654 0 0 0-1.24-.505c-.798-.098-1.471.103-2.021.6-.526.472-.838 1.112-.938 1.92-.1.806.065 1.51.487 2.106.424.598 1.035.948 1.832 1.046.424.052.84-.008 1.252-.182.482-.194.748-.488.797-.882a.627.627 0 0 0-.171-.518.764.764 0 0 0-.495-.266c-.047-.007-.253.078-.616.254-.364.173-.64.25-.832.224-.347-.04-.591-.232-.734-.572-.114-.268-.15-.589-.102-.963.047-.376.175-.676.39-.903.236-.254.537-.359.9-.314.194.024.466.132.819.328.35.194.559.295.626.303.153.02.299-.036.43-.165a.714.714 0 0 0 .229-.426c.049-.395-.156-.756-.613-1.085m-5.268-2.789c-.66-.735-1.558-1.173-2.69-1.31-1.107-.138-2.073.026-2.9.49-.932.51-1.463 1.298-1.594 2.364-.096.778.07 1.444.5 1.994s1.035.874 1.814.97c.335.04.638.005.905-.108.319-.138.499-.364.537-.679.04-.319-.118-.579-.474-.779l-.967-.352c-.344-.207-.49-.542-.433-1.004.067-.538.353-.932.864-1.182.445-.218.952-.29 1.519-.22.653.078 1.173.327 1.562.746.387.418.54.95.463 1.593a4.402 4.402 0 0 1-.08.401c-.141.597-.47 1.04-.982 1.327-.285.17-.845.365-1.681.584-.838.217-1.485.45-1.945.697-.691.383-1.04.964-1.05 1.744-.012.504.182.988.583 1.447.444.524 1.04.83 1.789.923.232.028.57.006 1.018-.065.046.025.16.127.343.304.113.114.257.18.43.2.374.047.75-.234 1.127-.842.318-.517.499-.957.543-1.322a.57.57 0 0 0-.153-.48.714.714 0 0 0-.46-.24c-.163-.022-.406.087-.728.32-.225.168-.451.34-.68.516-.315.196-.66.271-1.035.223a1.148 1.148 0 0 1-.704-.342.806.806 0 0 1-.236-.695c.04-.345.57-.647 1.589-.9 1.145-.279 1.944-.547 2.396-.804.954-.537 1.508-1.434 1.664-2.693.136-1.115-.147-2.057-.854-2.826m-8.211 15.664a2.952 2.952 0 0 0-.642 1.516c-.143 1.171.194 2.146 1.018 2.921.734.685 1.708 1.102 2.918 1.252 1.202.146 2.233.011 3.094-.41 1.006-.49 1.58-1.308 1.722-2.452.09-.739-.052-1.369-.426-1.888-.376-.52-.927-.873-1.656-1.06.532-1.222 1.176-2.25 1.93-3.085 1.028-1.132 2.07-1.633 3.127-1.503.327.041.776.223 1.346.548.569.321.898.49.983.5a1.02 1.02 0 0 0 .74-.172.875.875 0 0 0 .37-.64c.077-.607-.233-1.153-.925-1.638a4.083 4.083 0 0 0-1.871-.728c-1.731-.213-3.268.446-4.62 1.978-1.008 1.144-1.851 2.69-2.53 4.635l-.423-.009.17-1.385c.516-.073.794-.26.832-.57.04-.336-.212-.87-.762-1.6-.55-.732-.992-1.118-1.327-1.159a.796.796 0 0 0-.584.155.713.713 0 0 0-.303.511c-.011.087.114.332.378.735.213.318.262.953.145 1.905l-.367 2.985c-.015.124-.134.288-.354.49-.22.202-.334.342-.343.417-.058.472.374.764 1.296.878.712.087 1.092-.066 1.14-.46.016-.124-.01-.316-.07-.57-.06-.258-.083-.454-.065-.588l.072-.59c.216-.033.433-.035.652-.007.494.06.899.226 1.212.498.366.32.52.713.462 1.184-.076.616-.423 1.061-1.043 1.335-.516.24-1.104.32-1.757.238-.671-.082-1.255-.286-1.753-.61-.631-.41-.912-.913-.838-1.509.033-.268.233-.607.6-1.016.367-.408.556-.666.57-.77a.85.85 0 0 0-.164-.628.771.771 0 0 0-.552-.324c-.53-.067-.997.165-1.402.69m12.799 5.822l-.198-.184-.198-.197-.19-.21-.175-.228-.166-.253-.147-.293-.122-.34-.073-.396.005-.393.008-.033-.106.017-.217.025-.218.015-.218.005-.22-.005-.22-.015-.22-.024-.214-.03-.17-.033-.012.08-.06.294-.077.29-.095.284-.11.28-.13.27-.147.262-.165.252-.18.24-.197.226-.211.214-.226.2-.236.182-.25.17-.256.153-.26.134-.231.108-.233.096-.24.087-.24.078-.244.065-.247.057-.252.05-.252.035-.254.03-.258.02-.261.012-.261.003-.263-.006-.266-.013-.267-.024-.27-.028-.274-.038-.272-.047-.268-.055-.264-.063-.26-.073-.256-.08-.254-.092-.245-.1-.242-.109-.236-.119-.233-.129-.223-.139-.218-.146-.212-.158-.204-.168-.202-.179-.212-.21-.201-.223-.185-.234-.175-.243-.156-.255-.143-.262-.125-.273-.107-.282-.09-.283-.07-.29-.053-.294-.036-.296-.018-.3-.003-.299.014-.299.03-.308.052-.315.07-.315.094-.31.116-.305.136-.294.157-.284.177-.272.192-.255.24-.284.29-.28.327-.25.369-.216.239-.097c1.183-.556-.98-2.2.688-3.317-1.61-1.714-1.41-3.47-.294-4.993l.1-.13-.007-.006-.155-.153-.143-.158-.136-.167-.128-.172-.118-.179-.11-.183-.101-.192-.09-.196-.08-.199-.067-.203-.06-.209-.045-.209-.036-.21-.026-.213-.016-.214-.005-.21.004-.21.012-.214.023-.22.042-.279.055-.277.073-.274.088-.273.104-.265.119-.258.136-.249.152-.242.168-.233.18-.22.195-.207.208-.197.218-.182.23-.17.237-.155.236-.138.218-.116.226-.107.229-.098.236-.088.239-.076.24-.07.245-.057.247-.046.25-.038.249-.027.254-.016.256-.01h.256l.257.011.256.02.263.027.269.04.267.047.263.06.258.065.256.08.25.088.247.1.24.11.237.122.226.131.225.145.214.153.207.164.2.174.19.182.178.19.178.203.174.221.16.233.148.24.132.246.12.254.103.262.087.253.103-.033.22-.059.219-.046.224-.033.226-.02.225-.012.224.002.223.012.233.023.263.041.269.061.264.078.256.096.249.112.243.125.233.14.236.16.267.206.032.031.072-.035.206-.09.209-.077.216-.066.216-.052.218-.039.22-.03.22-.018.222-.007.22.004.22.013.22.023.22.032.219.04.217.051.213.061.21.073.207.082.205.095.025.014.003-.206.054-.28.069-.227.088-.205.099-.186.114-.17.116-.147.118-.13.125-.124.144-.124.16-.12.184-.114.213-.105.238-.085.26-.059.279-.025.319.016.39.093.339.142.278.165.242.172.223.183.215.196.212.211.217.231.209.24.194.236.178.241.164.255.15.282.002.005.047.008.439.142.419.202.387.257.347.305.299.342.039.057.08-.058.194-.122.199-.112.205-.099.213-.089.217-.075.223-.063.222-.047.225-.038.227-.023.228-.013h.224l.225.013.229.022.267.041.268.055.26.072.258.087.255.103.243.116.239.132.237.145.065.048.125-.095.314-.18.366-.14.42-.08.427.004.352.07.3.105.27.136.122.076.142-.004.215.006.223.021.317.052.32.08.314.106.306.137.294.166.277.195.255.22.236.244.217.274.19.303.157.325.117.335.08.35.04.35.007.348-.03.357-.07.375-.122.383-.18.37-.162.238.036.084.072.464-.015.381-.046.274-.055.232-.072.226-.083.216-.092.206-.106.203-.111.196-.1.153.06.04.18.123.362.288.344.337.309.382.257.425.197.466.122.491.049.505-.027.485-.064.365-.104.348-.15.345-.197.323-.238.295-.276.26-.3.218-.175.098.127.375.08.436.024.434-.031.445-.068.343-.117.325-.144.292-.063.098.085.115.129.237.1.248.072.26.037.264.008.254-.02.247-.05.283-.087.286-.121.276-.153.26-.177.232-.2.208-.213.182-.214.148-.214.126-.223.11-.236.09-.245.071-.253.051-.261.027-.258.002-.253-.019-.255-.043-.252-.063-.247-.087-.242-.109-.23-.129-.213-.149-.201-.167-.188-.185-.18-.212-.161-.239-.14-.259-.108-.278-.078-.29-.04-.263-.254-.096-.368-.173-.353-.207-.335-.244-.088-.08-.078.08c-1.482 1.17-4.134.943-5.674-.037l-.013.15-.04.248-.058.242-.078.242-.102.238-.121.228-.14.218-.162.204-.181.193-.21.186-.245.174-.27.146-.286.111-.294.078-.297.04-.29.007-.28-.02-.277-.048-.278-.076-.277-.108-.268-.144-.251-.176-.23-.203-.1-.113-.013.015c-.767.46-1.272.556-2.117.266a4.894 4.894 0 0 1-1.26-.859c-.606.69-1.448.702-2.256.427l-.261-.122-.233-.134-.218-.147-.205-.157-.198-.167z"/>
        <path d="M280.48 304.743h1.759v1.756h-1.759v-1.756z"/>
        <path d="M295.375 310.16c.005.197.038.36.102.486a.657.657 0 0 0 .266.29.734.734 0 0 0 .376.098.747.747 0 0 0 .38-.097.655.655 0 0 0 .264-.291c.062-.126.098-.29.1-.486v-5.416h1.516v5.416c.004.197.034.36.098.486a.673.673 0 0 0 .268.29.736.736 0 0 0 .376.098.777.777 0 0 0 .382-.097.671.671 0 0 0 .27-.291c.068-.126.102-.29.11-.486v-5.416h1.511v5.432c0 .287-.018.532-.046.733-.036.2-.08.37-.148.517-.066.14-.15.268-.246.38-.116.132-.24.243-.369.332a1.674 1.674 0 0 1-.458.192c-.17.04-.373.063-.603.063a1.988 1.988 0 0 1-.546-.094 1.315 1.315 0 0 1-.257-.11 2.717 2.717 0 0 1-.357-.26 3.446 3.446 0 0 1-.316-.31 1.795 1.795 0 0 1-1.472.774c-.136 0-.269-.02-.4-.055a1.43 1.43 0 0 1-.357-.148 1.09 1.09 0 0 1-.27-.21 1.93 1.93 0 0 1-.23-.26v.556h-1.455v-7.532h1.511v5.416z"/>
        <path d="M283.374 306.23c.07-.32.186-.58.342-.8a1.828 1.828 0 0 1 1.105-.729c.214-.049.446-.075.685-.072.334 0 .636.043.905.132.27.092.5.235.694.427.205.207.363.466.468.774.105.302.167.637.188.996h-1.5a2.498 2.498 0 0 0-.047-.38.855.855 0 0 0-.155-.335.559.559 0 0 0-.224-.186.738.738 0 0 0-.33-.07.78.78 0 0 0-.337.075.587.587 0 0 0-.251.225c-.07.12-.12.282-.15.487a6.176 6.176 0 0 0-.058.746c-.004.295-.008.625-.006.997-.003.56.006 1.025.03 1.396.027.375.088.647.184.821a.681.681 0 0 0 .255.232.736.736 0 0 0 .334.082.7.7 0 0 0 .324-.071.687.687 0 0 0 .229-.201.86.86 0 0 0 .155-.339c.026-.123.04-.245.048-.362h1.499a4.485 4.485 0 0 1-.087.647 2.832 2.832 0 0 1-.21.614 1.771 1.771 0 0 1-1.096.944 2.925 2.925 0 0 1-.862.113c-.24 0-.471-.024-.685-.069a1.82 1.82 0 0 1-1.105-.719 2.225 2.225 0 0 1-.342-.812 6.247 6.247 0 0 1-.154-1.054 20.762 20.762 0 0 1-.031-1.222c-.002-.432.01-.839.03-1.23.027-.387.077-.742.155-1.058"/>
        <path d="M289.87 309.914c.024.375.086.647.183.82a.691.691 0 0 0 .257.23.733.733 0 0 0 .333.084c.115 0 .222-.03.328-.083a.685.685 0 0 0 .255-.23c.098-.174.159-.446.184-.821.023-.371.034-.837.03-1.396a21.093 21.093 0 0 0-.03-1.404c-.025-.376-.086-.654-.184-.826a.64.64 0 0 0-.255-.225.765.765 0 0 0-.661 0 .645.645 0 0 0-.257.225c-.097.172-.16.45-.183.826-.021.377-.036.845-.03 1.404-.006.559.009 1.025.03 1.396m-1.36-3.675c.072-.316.189-.588.343-.81a1.816 1.816 0 0 1 1.099-.729c.215-.048.446-.074.69-.07.24-.004.47.022.686.07a1.808 1.808 0 0 1 1.099.73c.154.22.27.493.348.809.077.32.123.672.148 1.057.025.388.034.795.034 1.222 0 .426-.01.835-.034 1.22a6.266 6.266 0 0 1-.148 1.056 2.362 2.362 0 0 1-.348.81 1.803 1.803 0 0 1-1.1.72 3.35 3.35 0 0 1-.684.069c-.245 0-.476-.023-.691-.068a1.83 1.83 0 0 1-.6-.245 1.75 1.75 0 0 1-.5-.475 2.266 2.266 0 0 1-.342-.811 6.141 6.141 0 0 1-.155-1.055 23.624 23.624 0 0 1 0-2.443c.027-.385.075-.736.155-1.057"/>
        <path d="M305.872 291.654a.895.895 0 0 1-1.083.651.897.897 0 0 1-.652-1.082l.693-2.79a.898.898 0 0 1 1.084-.653c.476.118.77.606.652 1.084l-.694 2.79z"/>
        <path d="M302.668 291.24c-.15.6-.762.97-1.361.82a1.126 1.126 0 0 1-.82-1.362l.872-3.51c.15-.6.762-.97 1.36-.82.602.15.97.761.82 1.363l-.871 3.508z"/>
        <path d="M299.182 290.705a1.328 1.328 0 0 1-1.605.966 1.327 1.327 0 0 1-.965-1.605l1.027-4.135a1.329 1.329 0 0 1 1.604-.967 1.33 1.33 0 0 1 .967 1.606l-1.028 4.135z"/>
        <path d="M242.194 285.356c-.23-.007-.457-.142-.506-.302l-1.498-4.919c-.048-.16.099-.285.329-.279.229.007.457.144.506.303l1.498 4.919c.048.16-.1.285-.33.278"/>
        <path d="M233.875 285.716c-.276-.007-.55-.17-.607-.362l-1.798-5.904c-.058-.19.119-.342.394-.334.277.008.55.172.607.364l1.799 5.902c.058.192-.12.343-.395.334"/>
        <path d="M240.308 285.43c-.24-.006-.477-.15-.53-.315l-1.562-5.132c-.051-.167.104-.297.343-.291.24.008.477.15.529.316l1.563 5.13c.05.169-.104.299-.343.292"/>
        <path d="M236.127 285.642c-.265-.008-.527-.164-.585-.349l-1.73-5.683c-.056-.184.115-.329.38-.32.266.006.529.164.585.348l1.73 5.682c.057.186-.114.33-.38.322"/>
        <path d="M238.297 285.58c-.264-.007-.524-.159-.577-.337l-1.672-5.485c-.054-.179.117-.319.38-.31.263.006.524.158.578.337l1.67 5.485c.055.178-.116.318-.38.31"/>
    </g>
</svg>
