<?xml version="1.0" encoding="UTF-8"?><!DOCTYPE svg PUBLIC "-//W3C//DTD SVG 1.1//EN" "http://www.w3.org/Graphics/SVG/1.1/DTD/svg11.dtd"><svg xmlns="http://www.w3.org/2000/svg"><defs>
        <style>
            .cls-1{fill:#fff;fill-rule:evenodd}
        </style>
    
        <style>
            .cls-1{fill:#fff;fill-rule:evenodd}
        </style>
    
        <style>
            .cls-1{fill:#fff;fill-rule:evenodd}
        </style>
    
        <style>
            .cls-1{fill:#fff;fill-rule:evenodd}
        </style>
    
        <style>
            .cls-1{fill:#fff;fill-rule:evenodd}
        </style>
    </defs><symbol id="icon-basket" viewBox="0 0 23 21">
    
    <path id="Forma_1" data-name="Forma 1" class="cls-1" d="M1420.85 23.712h2.44l3.47 12.64a.855.855 0 0 0 .83.628h10.68a.862.862 0 0 0 .78-.514l3.88-8.988a.869.869 0 0 0-.07-.813.855.855 0 0 0-.71-.385h-11.8a.856.856 0 0 0 0 1.712h10.5l-3.15 7.276h-9.47l-3.48-12.64a.852.852 0 0 0-.82-.628h-3.08a.856.856 0 0 0 0 1.712zM1426.78 43a1.94 1.94 0 1 0-1.93-1.94 1.94 1.94 0 0 0 1.93 1.94zm12.05 0h.14a1.9 1.9 0 0 0 1.32-.67 1.917 1.917 0 1 0-1.46.67z" transform="translate(-1420 -22)"/>
</symbol><symbol id="icon-facebook" viewBox="0 0 10 19">
    <title>
        facebook
    </title>
    <path d="M9.766.157v2.946H8.014c-.64 0-1.071.134-1.295.402-.223.268-.335.67-.335 1.205v2.11h3.27l-.435 3.303H6.384v8.471H2.97v-8.47H.123V6.82H2.97V4.387c0-1.384.387-2.457 1.161-3.22C4.904.404 5.934.023 7.222.023c1.093 0 1.941.045 2.544.134z" fill-rule="evenodd"/>
</symbol><symbol id="icon-next" viewBox="0 0 24.656 17.03">
    
    <path id="Forma_1" data-name="Forma 1" class="cls-1" d="M928.957 1129.26a.865.865 0 0 0-1.241 0 .842.842 0 0 0 0 1.2l6.293 6.18h-20.764a.86.86 0 1 0 0 1.72h20.764l-6.293 6.17a.866.866 0 0 0 0 1.22.882.882 0 0 0 1.241 0l7.783-7.64a.833.833 0 0 0 0-1.21z" transform="translate(-912.375 -1129)"/>
</symbol><symbol id="icon-prev" viewBox="0 0 24.594 17">
    
    <path id="Forma_1" data-name="Forma 1" class="cls-1" d="M858.022 1129.26a.865.865 0 0 1 1.241 0 .842.842 0 0 1 0 1.2l-6.293 6.18h20.765a.85.85 0 0 1 .869.85.865.865 0 0 1-.869.86H852.97l6.293 6.17a.866.866 0 0 1 0 1.22.882.882 0 0 1-1.241 0l-7.782-7.64a.833.833 0 0 1 0-1.21z" transform="translate(-850 -1129)"/>
</symbol><symbol id="icon-search" viewBox="0 0 21 21">
    
    <path id="search" class="cls-1" d="M1354.59 35.709a8.033 8.033 0 0 0 2.24-5.542 8.419 8.419 0 1 0-8.41 8.166 8.551 8.551 0 0 0 5.04-1.626l6.25 6.072a.8.8 0 0 0 .54.222.745.745 0 0 0 .53-1.269zm-13.07-5.542a6.9 6.9 0 1 1 6.9 6.688 6.8 6.8 0 0 1-6.9-6.689z" transform="translate(-1340 -22)"/>
</symbol><symbol id="icon-user" viewBox="0 0 21 25">
    
    <path id="user" class="cls-1" d="M1539.4 33.471h.17a4.7 4.7 0 0 0 3.6-1.579c1.96-2.247 1.64-6.1 1.6-6.466-.13-2.759-1.41-4.079-2.48-4.7a5.592 5.592 0 0 0-2.74-.73h-.09a5.631 5.631 0 0 0-2.75.71 5.308 5.308 0 0 0-2.51 4.716c-.03.368-.36 4.219 1.61 6.466a4.667 4.667 0 0 0 3.59 1.583zm-3.83-7.916v-.042c.17-3.712 2.77-4.11 3.88-4.11h.07c1.37.031 3.72.6 3.88 4.11v.042c.01.036.37 3.557-1.26 5.41a3.319 3.319 0 0 1-2.63 1.108h-.05a3.334 3.334 0 0 1-2.63-1.108c-1.62-1.843-1.27-5.379-1.26-5.41zm14.41 14.3v-.141c-.03-1.025-.1-3.422-2.32-4.188a.3.3 0 0 0-.05-.016 14.722 14.722 0 0 1-4.24-1.957.683.683 0 0 0-.96.171.706.706 0 0 0 .17.974 15.886 15.886 0 0 0 4.66 2.159c1.19.43 1.33 1.719 1.36 2.9a.545.545 0 0 0 .01.13 10.292 10.292 0 0 1-.11 1.6 20.164 20.164 0 0 1-18.02-.005 9.216 9.216 0 0 1-.1-1.6v-.13c.04-1.18.17-2.47 1.36-2.9a15.878 15.878 0 0 0 4.66-2.159.7.7 0 0 0 .17-.973.683.683 0 0 0-.96-.171 14.408 14.408 0 0 1-4.24 1.957c-.02.005-.03.01-.05.016-2.22.771-2.28 3.168-2.31 4.188a.542.542 0 0 1-.01.129v.016a8.245 8.245 0 0 0 .26 2.345.679.679 0 0 0 .27.326 21.324 21.324 0 0 0 19.94 0 .679.679 0 0 0 .27-.326 8.415 8.415 0 0 0 .24-2.341z" transform="translate(-1529 -20)"/>
</symbol></svg>